<?xml version="1.0" standalone="no"?>
<!DOCTYPE svg PUBLIC "-//W3C//DTD SVG 20010904//EN"
 "http://www.w3.org/TR/2001/REC-SVG-20010904/DTD/svg10.dtd">
<svg version="1.0" xmlns="http://www.w3.org/2000/svg"
 width="261.000000pt" height="261.000000pt" viewBox="0 0 261.000000 261.000000"
 preserveAspectRatio="xMidYMid meet">
<metadata>
Created by potrace 1.14, written by Peter Selinger 2001-2017
</metadata>
<g transform="translate(0.000000,261.000000) scale(0.100000,-0.100000)"
fill="#000000" stroke="none">
<path d="M825 1898 c-9 -30 -325 -1194 -325 -1201 0 -13 130 -8 135 6 2 6 25
94 51 194 l48 181 168 1 c166 1 169 1 178 -22 9 -19 100 -352 100 -363 0 -2
32 -4 71 -4 62 0 70 2 65 18 -2 9 -19 71 -36 137 -18 66 -36 131 -40 145 -5
14 -64 226 -131 473 l-123 447 -78 0 c-54 0 -80 -4 -83 -12z m194 -582 c17
-60 31 -111 31 -113 0 -2 -66 -3 -146 -3 -113 0 -145 3 -141 13 10 28 126 475
132 512 6 37 11 26 50 -130 24 -93 57 -219 74 -279z"/>
<path d="M1460 1300 l0 -610 64 0 64 0 1 232 0 232 43 63 c24 34 45 63 49 63
3 0 18 -26 35 -58 16 -32 87 -165 158 -295 l128 -237 78 0 78 0 -95 173 c-52
94 -118 214 -146 266 -27 52 -71 132 -97 179 l-47 85 101 146 c56 80 136 197
179 259 l78 112 -83 0 -83 -1 -37 -57 c-20 -31 -88 -136 -152 -233 -63 -97
-131 -203 -150 -235 l-36 -59 -1 175 c0 96 0 228 0 293 l1 117 -65 0 -65 0 0
-610z"/>
</g>
</svg>
